# xmcd CD database file
#
# Track frame offsets:
#	150
#	15263
#	29877
#	39869
#	59749
#	86663
#	98020
#	120925
#	144864
#	164808
#	186055
#	202548
#
# Disc length: 3011 seconds
#
# Revision: 0
# Processed by: cddbd v1.5.2PL0 Copyright (c) Steve Scherf et al.
# Submitted via: CDex 1.70beta2
#
DISCID=920bc10c
DTITLE=Behind the sun - Hound dog song
DYEAR=2006
DGENRE=Blues
TTITLE0=01- Hound dog
TTITLE1=02 - You don't have tou go
TTITLE2=03 - No more
TTITLE3=04 - Thrill is cone
TTITLE4=05 - Nobody 's fault
TTITLE5=06 - Set me free
TTITLE6=07 - Early morning
TTITLE7=08 - Sweet home Chicago
TTITLE8=09 - Perdu ton ame
TTITLE9=10 - Take care
TTITLE10=11 - How you feel
TTITLE11=12 - Sweet dear freedom
EXTD=YEAR: 2006
EXTT0=
EXTT1=
EXTT2=
EXTT3=
EXTT4=
EXTT5=
EXTT6=
EXTT7=
EXTT8=
EXTT9=
EXTT10=
EXTT11=
PLAYORDER=
